<svg width="72" height="153" viewBox="0 0 72 153" fill="none" xmlns="http://www.w3.org/2000/svg">
<g filter="url(#filter0_d)">
<path d="M35.95 126.3C32.55 126.3 30.85 123.85 30.85 118.95L30.7 67.8C30.7 63.1 32.4 60.75 35.8 60.75C39.3 60.75 41.05 63.15 41.05 67.95L41.2 118.95C41.2 123.85 39.45 126.3 35.95 126.3Z" fill="white"/>
</g>
<path fill-rule="evenodd" clip-rule="evenodd" d="M21.3594 76.8643C20.1816 77.1146 19.0352 77.3961 17.9199 77.7089C15.2832 78.4251 12.8581 79.304 10.6445 80.3457C8.43099 81.3548 6.52669 82.5104 4.93164 83.8125C3.36914 85.1145 2.14844 86.5468 1.26953 88.1093C0.423177 89.6393 0 91.2669 0 92.9922V134.887C0 136.612 0.423177 138.256 1.26953 139.818C2.14844 141.348 3.36914 142.764 4.93164 144.066C6.52669 145.368 8.43099 146.54 10.6445 147.582C12.8581 148.591 15.2832 149.47 17.9199 150.219C20.5892 150.935 23.4375 151.488 26.4648 151.879C29.5247 152.269 32.6823 152.465 35.9375 152.465C39.1927 152.465 42.3503 152.269 45.4102 151.879C48.4701 151.488 51.3346 150.935 54.0039 150.219C56.6732 149.47 59.1146 148.591 61.3281 147.582C63.5417 146.54 65.4297 145.368 66.9922 144.066C68.5547 142.764 69.7754 141.348 70.6543 139.818C71.5332 138.256 71.9727 136.612 71.9727 134.887V92.9922C71.9727 91.2669 71.5332 89.6393 70.6543 88.1093C69.7754 86.5468 68.5547 85.1145 66.9922 83.8125C65.4297 82.5104 63.5417 81.3548 61.3281 80.3457C59.1146 79.304 56.6732 78.4251 54.0039 77.7089C52.827 77.3788 51.6122 77.0836 50.3594 76.8231V88.3655C51.2853 88.6863 52.1421 89.0403 52.9297 89.4277C54.9479 90.3717 56.4941 91.4785 57.5684 92.748C58.6426 93.985 59.1797 95.3033 59.1797 96.7031V131.176C59.1797 132.543 58.6426 133.861 57.5684 135.131C56.4941 136.368 54.9479 137.475 52.9297 138.451C50.944 139.428 48.5189 140.209 45.6543 140.795C42.7897 141.348 39.5508 141.625 35.9375 141.625C32.4544 141.625 29.2969 141.348 26.4648 140.795C23.6328 140.241 21.1914 139.493 19.1406 138.549C17.1224 137.605 15.5599 136.498 14.4531 135.228C13.3464 133.959 12.793 132.608 12.793 131.176V96.7031C12.793 95.2382 13.3464 93.8711 14.4531 92.6015C15.5599 91.332 17.1224 90.2252 19.1406 89.2812C19.8354 88.9614 20.575 88.6659 21.3594 88.3946V76.8643Z" fill="#30A7FD"/>
<defs>
<filter id="filter0_d" x="15.7" y="51.75" width="40.5" height="95.55" filterUnits="userSpaceOnUse" color-interpolation-filters="sRGB">
<feFlood flood-opacity="0" result="BackgroundImageFix"/>
<feColorMatrix in="SourceAlpha" type="matrix" values="0 0 0 0 0 0 0 0 0 0 0 0 0 0 0 0 0 0 127 0"/>
<feOffset dy="6"/>
<feGaussianBlur stdDeviation="7.5"/>
<feColorMatrix type="matrix" values="0 0 0 0 1 0 0 0 0 1 0 0 0 0 1 0 0 0 1 0"/>
<feBlend mode="normal" in2="BackgroundImageFix" result="effect1_dropShadow"/>
<feBlend mode="normal" in="SourceGraphic" in2="effect1_dropShadow" result="shape"/>
</filter>
</defs>
</svg>
