<svg width="283" height="93" viewBox="0 0 283 93" fill="none" xmlns="http://www.w3.org/2000/svg">
<path d="M105.992 40.406C104.742 40.198 103.453 40.094 102.125 40.094C97.776 40.094 94.8464 41.76 93.3359 45.094V74H83.8438V31.7344H92.9062L93.1406 36.4609C95.4323 32.7891 98.6094 30.9531 102.672 30.9531C104.026 30.9531 105.146 31.1354 106.031 31.5L105.992 40.406ZM122.086 74H112.594V31.7344H122.086V74ZM112.008 20.7578C112.008 19.2995 112.464 18.0885 113.375 17.125C114.312 16.1615 115.641 15.6797 117.359 15.6797C119.078 15.6797 120.406 16.1615 121.344 17.125C122.281 18.0885 122.75 19.2995 122.75 20.7578C122.75 22.1901 122.281 23.388 121.344 24.3516C120.406 25.2891 119.078 25.7578 117.359 25.7578C115.641 25.7578 114.312 25.2891 113.375 24.3516C112.464 23.388 112.008 22.1901 112.008 20.7578ZM130.797 52.555C130.797 45.992 132.333 40.758 135.406 36.8516C138.505 32.9193 142.607 30.9531 147.711 30.9531C152.529 30.9531 156.318 32.6328 159.078 35.9922L159.508 31.7344H168.062V72.711C168.062 78.258 166.331 82.633 162.867 85.836C159.43 89.039 154.781 90.641 148.922 90.641C145.823 90.641 142.789 89.99 139.82 88.688C136.878 87.411 134.638 85.732 133.102 83.648L137.594 77.945C140.51 81.409 144.104 83.141 148.375 83.141C151.526 83.141 154.013 82.281 155.836 80.562C157.659 78.87 158.57 76.37 158.57 73.062V70.211C155.836 73.258 152.19 74.781 147.633 74.781C142.685 74.781 138.635 72.815 135.484 68.883C132.359 64.951 130.797 59.508 130.797 52.555ZM140.25 53.375C140.25 57.62 141.109 60.966 142.828 63.414C144.573 65.836 146.982 67.047 150.055 67.047C153.883 67.047 156.721 65.406 158.57 62.125V43.531C156.773 40.328 153.961 38.7266 150.133 38.7266C147.008 38.7266 144.573 39.9635 142.828 42.438C141.109 44.911 140.25 48.557 140.25 53.375ZM186.773 31.7344L187.047 36.1484C190.016 32.6849 194.078 30.9531 199.234 30.9531C204.885 30.9531 208.753 33.1146 210.836 37.4375C213.909 33.1146 218.232 30.9531 223.805 30.9531C228.466 30.9531 231.93 32.2422 234.195 34.8203C236.487 37.3984 237.659 41.201 237.711 46.227V74H228.219V46.5C228.219 43.818 227.633 41.852 226.461 40.602C225.289 39.3516 223.349 38.7266 220.641 38.7266C218.479 38.7266 216.708 39.3125 215.328 40.484C213.974 41.63 213.023 43.141 212.477 45.016L212.516 74H203.023V46.188C202.893 41.214 200.354 38.7266 195.406 38.7266C191.604 38.7266 188.909 40.276 187.32 43.375V74H177.828V31.7344H186.773ZM272.711 74C272.294 73.193 271.93 71.878 271.617 70.055C268.596 73.206 264.898 74.781 260.523 74.781C256.279 74.781 252.815 73.57 250.133 71.148C247.451 68.727 246.109 65.732 246.109 62.164C246.109 57.659 247.776 54.208 251.109 51.812C254.469 49.391 259.26 48.18 265.484 48.18H271.305V45.406C271.305 43.219 270.693 41.474 269.469 40.172C268.245 38.8438 266.383 38.1797 263.883 38.1797C261.721 38.1797 259.951 38.7266 258.57 39.8203C257.19 40.888 256.5 42.255 256.5 43.922H247.008C247.008 41.604 247.776 39.4427 249.312 37.4375C250.849 35.4062 252.932 33.8177 255.562 32.6719C258.219 31.526 261.174 30.9531 264.43 30.9531C269.378 30.9531 273.323 32.2031 276.266 34.7031C279.208 37.1771 280.719 40.667 280.797 45.172V64.234C280.797 68.036 281.331 71.07 282.398 73.336V74H272.711ZM262.281 67.164C264.156 67.164 265.914 66.708 267.555 65.797C269.221 64.885 270.471 63.661 271.305 62.125V54.156H266.188C262.672 54.156 260.029 54.768 258.258 55.992C256.487 57.216 255.602 58.948 255.602 61.188C255.602 63.01 256.201 64.469 257.398 65.562C258.622 66.63 260.25 67.164 262.281 67.164Z" fill="#30A7FD"/>
<path d="M35.95 66.3C32.55 66.3 30.85 63.85 30.85 58.95L30.7 7.8C30.7 3.1 32.4 0.75 35.8 0.75C39.3 0.75 41.05 3.15 41.05 7.95L41.2 58.95C41.2 63.85 39.45 66.3 35.95 66.3Z" fill="white"/>
<path fill-rule="evenodd" clip-rule="evenodd" d="M21.3594 16.8643C20.1816 17.1146 19.0352 17.3961 17.9199 17.7089C15.2832 18.4251 12.8581 19.304 10.6445 20.3457C8.43099 21.3548 6.52669 22.5104 4.93164 23.8125C3.36914 25.1145 2.14844 26.5468 1.26953 28.1093C0.423177 29.6393 0 31.2669 0 32.9922V74.887C0 76.612 0.423177 78.256 1.26953 79.818C2.14844 81.348 3.36914 82.764 4.93164 84.066C6.52669 85.368 8.43099 86.54 10.6445 87.582C12.8581 88.591 15.2832 89.47 17.9199 90.219C20.5892 90.935 23.4375 91.488 26.4648 91.879C29.5247 92.269 32.6823 92.465 35.9375 92.465C39.1927 92.465 42.3503 92.269 45.4102 91.879C48.4701 91.488 51.3346 90.935 54.0039 90.219C56.6732 89.47 59.1146 88.591 61.3281 87.582C63.5417 86.54 65.4297 85.368 66.9922 84.066C68.5547 82.764 69.7754 81.348 70.6543 79.818C71.5332 78.256 71.9727 76.612 71.9727 74.887V32.9922C71.9727 31.2669 71.5332 29.6393 70.6543 28.1093C69.7754 26.5468 68.5547 25.1145 66.9922 23.8125C65.4297 22.5104 63.5417 21.3548 61.3281 20.3457C59.1146 19.304 56.6732 18.4251 54.0039 17.7089C52.827 17.3788 51.6122 17.0836 50.3594 16.8231V28.3655C51.2853 28.6863 52.1421 29.0403 52.9297 29.4277C54.9479 30.3717 56.4941 31.4785 57.5684 32.748C58.6426 33.985 59.1797 35.3033 59.1797 36.7031V71.176C59.1797 72.543 58.6426 73.861 57.5684 75.131C56.4941 76.368 54.9479 77.475 52.9297 78.451C50.944 79.428 48.5189 80.209 45.6543 80.795C42.7897 81.348 39.5508 81.625 35.9375 81.625C32.4544 81.625 29.2969 81.348 26.4648 80.795C23.6328 80.241 21.1914 79.493 19.1406 78.549C17.1224 77.605 15.5599 76.498 14.4531 75.228C13.3464 73.959 12.793 72.608 12.793 71.176V36.7031C12.793 35.2382 13.3464 33.8711 14.4531 32.6015C15.5599 31.332 17.1224 30.2252 19.1406 29.2812C19.8354 28.9614 20.575 28.6659 21.3594 28.3946V16.8643Z" fill="#30A7FD"/>
</svg>
