<svg width="240" height="76" viewBox="0 0 240 76" fill="none" xmlns="http://www.w3.org/2000/svg">
<path d="M90.0788 32.8611C89.0165 32.6888 87.921 32.6026 86.7924 32.6026C83.0963 32.6026 80.6066 33.9831 79.3229 36.7459V60.6989H71.2559V25.6754H78.9577L79.1569 29.592C81.1045 26.5494 83.8046 25.0279 87.2573 25.0279C88.408 25.0279 89.3598 25.179 90.112 25.4811L90.0788 32.8611ZM103.757 60.6989H95.6896V25.6754H103.757V60.6989ZM95.1916 16.5796C95.1916 15.3711 95.5791 14.3676 96.3534 13.5692C97.1497 12.7708 98.2792 12.3716 99.7392 12.3716C101.2 12.3716 102.329 12.7708 103.126 13.5692C103.922 14.3676 104.321 15.3711 104.321 16.5796C104.321 17.7664 103.922 18.7591 103.126 19.5576C102.329 20.3344 101.2 20.7228 99.7392 20.7228C98.2792 20.7228 97.1497 20.3344 96.3534 19.5576C95.5791 18.7591 95.1916 17.7664 95.1916 16.5796ZM111.16 42.9285C111.16 37.49 112.465 33.1528 115.077 29.9158C117.71 26.6572 121.197 25.0279 125.534 25.0279C129.629 25.0279 132.849 26.4198 135.195 29.2036L135.56 25.6754H142.83V59.6308C142.83 64.2273 141.359 67.8527 138.415 70.5069C135.494 73.1611 131.543 74.4886 126.563 74.4886C123.93 74.4886 121.351 73.9491 118.828 72.8702C116.328 71.812 114.424 70.4207 113.119 68.6938L116.936 63.968C119.414 66.8384 122.469 68.2737 126.099 68.2737C128.777 68.2737 130.89 67.561 132.439 66.1366C133.989 64.7345 134.763 62.6628 134.763 59.9217V57.5592C132.439 60.0841 129.341 61.3461 125.468 61.3461C121.263 61.3461 117.821 59.717 115.143 56.4587C112.487 53.2004 111.16 48.6901 111.16 42.9285ZM119.193 43.6079C119.193 47.1256 119.924 49.8983 121.384 51.9268C122.867 53.9338 124.915 54.9373 127.526 54.9373C130.78 54.9373 133.192 53.5775 134.763 50.8587V35.4507C133.236 32.7965 130.846 31.4695 127.593 31.4695C124.937 31.4695 122.867 32.4945 121.384 34.545C119.924 36.5942 119.193 39.6155 119.193 43.6079ZM158.732 25.6754L158.965 29.3331C161.488 26.463 164.94 25.0279 169.322 25.0279C174.124 25.0279 177.412 26.8191 179.182 30.4013C181.794 26.8191 185.468 25.0279 190.204 25.0279C194.165 25.0279 197.109 26.0962 199.034 28.2325C200.982 30.3689 201.978 33.5199 202.022 37.6847V60.6989H193.955V37.9109C193.955 35.6885 193.457 34.0594 192.461 33.0235C191.465 31.9874 189.816 31.4695 187.515 31.4695C185.678 31.4695 184.172 31.955 183 32.9258C181.849 33.8754 181.041 35.1275 180.577 36.6812L180.61 60.6989H172.542V37.6524C172.432 33.5307 170.274 31.4695 166.069 31.4695C162.837 31.4695 160.547 32.7534 159.197 35.3214V60.6989H151.13V25.6754H158.732ZM231.767 60.6989C231.413 60.0302 231.104 58.9405 230.838 57.4299C228.27 60.041 225.127 61.3461 221.409 61.3461C217.802 61.3461 214.858 60.3426 212.579 58.3356C210.3 56.3294 209.159 53.8476 209.159 50.891C209.159 47.1579 210.576 44.2982 213.409 42.3128C216.264 40.3066 220.336 39.3031 225.625 39.3031H230.572V37.0044C230.572 35.1921 230.052 33.7461 229.012 32.6672C227.972 31.5666 226.389 31.0163 224.265 31.0163C222.427 31.0163 220.923 31.4695 219.749 32.3758C218.577 33.2605 217.99 34.3933 217.99 35.7747H209.923C209.923 33.8539 210.576 32.0629 211.881 30.4013C213.188 28.718 214.958 27.4017 217.193 26.4522C219.451 25.5027 221.962 25.0279 224.73 25.0279C228.935 25.0279 232.287 26.0638 234.789 28.1354C237.289 30.1855 238.573 33.0774 238.639 36.8105V52.6063C238.639 55.7568 239.093 58.271 240 60.1487V60.6989H231.767ZM222.903 55.0343C224.497 55.0343 225.991 54.6564 227.385 53.9015C228.801 53.1458 229.864 52.1315 230.572 50.8587V44.2551H226.224C223.236 44.2551 220.989 44.7623 219.484 45.7765C217.979 46.7908 217.227 48.226 217.227 50.0822C217.227 51.592 217.736 52.801 218.753 53.7068C219.794 54.5918 221.177 55.0343 222.903 55.0343Z" fill="#30A7FD"/>
<path d="M30.5527 54.3183C27.6632 54.3183 26.2184 52.2881 26.2184 48.2277L26.0909 5.84201C26.0909 1.94734 27.5357 0 30.4252 0C33.3998 0 34.887 1.98877 34.887 5.96631L35.0145 48.2277C35.0145 52.2881 33.5273 54.3183 30.5527 54.3183Z" fill="white"/>
<path fill-rule="evenodd" clip-rule="evenodd" d="M18.1526 13.3532C17.1516 13.5606 16.1773 13.7939 15.2295 14.0531C12.9886 14.6466 10.9276 15.3749 9.04638 16.2381C7.1652 17.0743 5.5468 18.0319 4.19123 19.1109C2.86331 20.1898 1.82588 21.3767 1.07893 22.6714C0.359643 23.9393 0 25.288 0 26.7177V61.434C0 62.8634 0.359643 64.2257 1.07893 65.5201C1.82588 66.7879 2.86331 67.9613 4.19123 69.0402C5.5468 70.1191 7.1652 71.0903 9.04638 71.9537C10.9276 72.7898 12.9886 73.5182 15.2295 74.1389C17.498 74.7322 19.9187 75.1905 22.4915 75.5145C25.092 75.8376 27.7755 76 30.542 76C33.3085 76 35.992 75.8376 38.5925 75.5145C41.193 75.1905 43.6274 74.7322 45.896 74.1389C48.1645 73.5182 50.2394 72.7898 52.1206 71.9537C54.0018 71.0903 55.6064 70.1191 56.9343 69.0402C58.2622 67.9613 59.2996 66.7879 60.0466 65.5201C60.7935 64.2257 61.167 62.8634 61.167 61.434V26.7177C61.167 25.288 60.7935 23.9393 60.0466 22.6714C59.2996 21.3767 58.2622 20.1898 56.9343 19.1109C55.6064 18.0319 54.0018 17.0743 52.1206 16.2381C50.2394 15.3749 48.1645 14.6466 45.896 14.0531C44.8958 13.7796 43.8634 13.535 42.7987 13.3191V22.8838C43.5856 23.1496 44.3137 23.4429 44.9831 23.7639C46.6983 24.5462 48.0123 25.4633 48.9253 26.5153C49.8383 27.5404 50.2947 28.6328 50.2947 29.7927V58.3588C50.2947 59.4916 49.8383 60.5838 48.9253 61.6362C48.0123 62.6612 46.6983 63.5785 44.9831 64.3873C43.2955 65.1969 41.2345 65.8441 38.8 66.3297C36.3654 66.7879 33.6128 67.0174 30.542 67.0174C27.5818 67.0174 24.8984 66.7879 22.4915 66.3297C20.0847 65.8706 18.0098 65.2507 16.2669 64.4685C14.5517 63.6863 13.2238 62.7689 12.2832 61.7165C11.3426 60.665 10.8723 59.5455 10.8723 58.3588V29.7927C10.8723 28.5788 11.3426 27.446 12.2832 26.3939C13.2238 25.342 14.5517 24.4248 16.2669 23.6425C16.8574 23.3775 17.486 23.1327 18.1526 22.9079V13.3532Z" fill="#30A7FD"/>
</svg>
