<svg width="128" height="45" viewBox="0 0 128 45" fill="none" xmlns="http://www.w3.org/2000/svg">
<path d="M48.7001 28.9H45.6001L41.2001 16.1H44.0001L47.2001 25.7L50.4001 16.1H53.2001L56.4001 25.7L59.6001 16.1H62.4001L58.0001 28.9H54.9001L51.9001 20.2L48.7001 28.9Z" fill="#3FAFAD"/>
<path d="M74.8001 28.9H72.4001V27.2C71.3001 28.5 69.9001 29.1 68.2001 29.1C66.9001 29.1 65.8001 28.7 64.9001 28C64.0001 27.2 63.6001 26.2 63.6001 25C63.6001 23.7 64.1001 22.8 65.0001 22.2C65.9001 21.6 67.2001 21.3 68.8001 21.3H72.3001V20.8C72.3001 19.1 71.4001 18.3 69.5001 18.3C68.3001 18.3 67.1001 18.7 65.8001 19.6L64.6001 17.9C66.2001 16.7 67.9001 16.1 69.9001 16.1C71.4001 16.1 72.6001 16.5 73.6001 17.2C74.6001 18 75.0001 19.2 75.0001 20.8V28.9H74.8001ZM72.1001 24.1V23H69.1001C67.2001 23 66.2001 23.6 66.2001 24.8C66.2001 25.4 66.4001 25.9 66.9001 26.2C67.4001 26.5 68.0001 26.7 68.9001 26.7C69.8001 26.7 70.5001 26.5 71.1001 26C71.7001 25.5 72.1001 24.9 72.1001 24.1Z" fill="#3FAFAD"/>
<path d="M90.4 16.1V27.2C90.4 29.5 89.8 31.1 88.6 32.3C87.4 33.5 85.8 34 83.9 34C82 34 80.2 33.4 78.7 32.2L80 30.2C81.2 31.1 82.5 31.6 83.8 31.6C85.1 31.6 86.1 31.3 86.8 30.6C87.5 29.9 87.9 28.9 87.9 27.5V25.9C87.5 26.7 86.9 27.3 86.2 27.7C85.5 28.1 84.6 28.4 83.7 28.4C82 28.4 80.6 27.8 79.5 26.6C78.4 25.4 77.9 23.9 77.9 22.2C77.9 20.4 78.4 19 79.5 17.8C80.6 16.6 82 16 83.7 16C85.4 16 86.8 16.7 87.8 18.1V16.2H90.4V16.1ZM80.4 22C80.4 23 80.7 24 81.4 24.7C82 25.5 82.9 25.8 84 25.8C85.1 25.8 86 25.4 86.7 24.7C87.4 24 87.7 23 87.7 22C87.7 20.9 87.4 20 86.7 19.2C86 18.4 85.1 18.1 84 18.1C82.9 18.1 82 18.5 81.4 19.3C80.7 20 80.4 21 80.4 22Z" fill="#3FAFAD"/>
<path d="M97.6 18.3V24.8C97.6 25.4 97.8 25.9 98.1 26.3C98.4 26.7 98.9 26.8 99.4 26.8C99.9 26.8 100.5 26.5 101.1 26L102.2 27.9C101.3 28.7 100.2 29.2 99.1 29.2C98 29.2 97 28.8 96.2 28C95.4 27.2 95 26.1 95 24.8V18.4H93.4V16.2H95V12.2H97.7V16.2H101.1V18.4H97.6V18.3Z" fill="#3FAFAD"/>
<path d="M114.6 28.9H112.2V27.2C111.1 28.5 109.7 29.1 108 29.1C106.7 29.1 105.6 28.7 104.7 28C103.8 27.2 103.4 26.2 103.4 25C103.4 23.7 103.9 22.8 104.8 22.2C105.7 21.6 107 21.3 108.6 21.3H112.1V20.8C112.1 19.1 111.2 18.3 109.3 18.3C108.1 18.3 106.9 18.7 105.6 19.6L104.4 17.9C106 16.7 107.7 16.1 109.7 16.1C111.2 16.1 112.4 16.5 113.4 17.2C114.4 18 114.8 19.2 114.8 20.8V28.9H114.6ZM111.9 24.1V23H108.9C107 23 106 23.6 106 24.8C106 25.4 106.2 25.9 106.7 26.2C107.2 26.5 107.8 26.7 108.7 26.7C109.6 26.7 110.3 26.5 110.9 26C111.5 25.5 111.9 24.9 111.9 24.1Z" fill="#3FAFAD"/>
<path d="M118.5 13.6C118.2 13.3 118 12.9 118 12.4C118 11.9 118.2 11.5 118.5 11.2C118.8 10.9 119.2 10.7 119.7 10.7C120.2 10.7 120.6 10.9 120.9 11.2C121.2 11.5 121.4 11.9 121.4 12.4C121.4 12.9 121.2 13.3 120.9 13.6C120.6 13.9 120.2 14.1 119.7 14.1C119.2 14.1 118.9 13.9 118.5 13.6ZM121.1 28.9H118.4V16.1H121.1V28.9Z" fill="#3FAFAD"/>
<path d="M127.6 28.9H124.9V11.1H127.6V28.9Z" fill="#3FAFAD"/>
<path d="M30.7 6.5C31.1971 6.5 31.6 6.09706 31.6 5.60001C31.6 5.10295 31.1971 4.70001 30.7 4.70001C30.203 4.70001 29.8 5.10295 29.8 5.60001C29.8 6.09706 30.203 6.5 30.7 6.5Z" fill="#3FAFAD"/>
<path d="M36.5 9.5L33.5 6.60001L31 9.5H36.5Z" fill="#3FAFAD"/>
<path d="M31.8 14.5C31.8 14.5 30.6 8.60001 22.9 10.2C22.1 7.50001 22.3 5.59999 24 3.79999C26.3 1.29999 30 2.70001 30 2.70001V0.700012C28.7 0.100012 27.5 0 26.1 0C21.2 0 18.4 3.70001 17.2 6.20001L3.30002 31.8L7.20001 31.1L0 45L5 44.1L8.80002 33.2C19.8 33 33.8 29.1 31.8 14.5ZM27 16.6C27 16.8 27 16.9 26.9 17.1C26.9 17.3 26.9 17.5 26.8 17.7C26.8 17.9 26.7 18.2 26.7 18.4C26.6 18.6 26.6 18.9 26.5 19.2C26.4 19.5 26.3 19.7 26.2 20C26.1 20.3 26 20.6 25.9 20.9C25.8 21 25.8 21.2 25.7 21.3C25.7 21.4 25.6 21.5 25.6 21.5C25.6 21.6 25.5 21.6 25.5 21.7C25.4 21.8 25.3 22 25.2 22.1C25.1 22.2 25 22.4 24.9 22.5C24.9 22.6 24.8 22.6 24.8 22.7L24.6 22.9C24.5 23 24.4 23.2 24.3 23.3C24.1 23.6 23.8 23.9 23.6 24.1C23.3 24.4 23.1 24.6 22.8 24.9L22.4 25.3C22.3 25.4 22.1 25.5 22 25.6C21.4 26 20.8 26.4 20.1 26.8C19.4 27.1 18.8 27.4 18.1 27.7C17.5 28 16.8 28.2 16.2 28.4C15.6 28.6 15 28.7 14.5 28.9C13.4 29.2 12.5 29.3 11.9 29.5C11.3 29.6 10.9 29.7 10.9 29.7C10.9 29.7 11.3 29.6 11.9 29.5C12.5 29.4 13.4 29.2 14.5 28.9C15 28.8 15.6 28.6 16.2 28.4C16.8 28.2 17.4 28 18.1 27.7C18.7 27.4 19.4 27.1 20 26.8C20.6 26.5 21.2 26 21.8 25.6C21.9 25.5 22.1 25.4 22.2 25.3L22.6 24.9C22.9 24.6 23.1 24.4 23.4 24.1C23.7 23.8 23.9 23.6 24.1 23.3C24.2 23.2 24.3 23 24.4 22.9L24.5 22.7L24.6 22.5C24.7 22.4 24.8 22.2 24.9 22.1C25 22 25.1 21.8 25.1 21.7C25.1 21.6 25.2 21.6 25.2 21.5C25.2 21.4 25.3 21.4 25.3 21.3C25.4 21.2 25.4 21 25.5 20.9C25.6 20.6 25.7 20.3 25.8 20C25.9 19.7 26 19.4 26 19.2C26.1 18.9 26.1 18.7 26.2 18.4C26.2 18.2 26.3 17.9 26.3 17.7C26.3 17.5 26.4 17.3 26.4 17.1C26.4 16.9 26.4 16.7 26.5 16.6C26.5 16 26.5 15.6 26.5 15.6H27.1C27.1 15.6 27 15.9 27 16.6Z" fill="#3FAFAD"/>
</svg>
